<svg width="22" height="22" viewBox="0 0 22 22" fill="none" xmlns="http://www.w3.org/2000/svg">
<g id="Icon" clip-path="url(#clip0_10316_794)">
<path id="Vector" d="M21.2946 11.1234C21.2946 10.4008 21.236 9.67442 21.111 8.96362H11.0856V13.0566H16.8267C16.5885 14.3766 15.823 15.5444 14.7021 16.2864V18.9421H18.1272C20.1386 17.0909 21.2946 14.3571 21.2946 11.1234Z" fill="#4285F4"/>
<path id="Vector_2" d="M11.0856 21.508C13.9522 21.508 16.3697 20.5668 18.1311 18.9421L14.706 16.2864C13.7531 16.9347 12.5228 17.3018 11.0895 17.3018C8.31662 17.3018 5.96551 15.4311 5.12193 12.9159H1.58746V15.6537C3.3918 19.2428 7.06686 21.508 11.0856 21.508Z" fill="#34A853"/>
<path id="Vector_3" d="M5.11804 12.9159C4.67282 11.5959 4.67282 10.1664 5.11804 8.8464V6.10865H1.58749C0.0799688 9.11197 0.0799688 12.6503 1.58749 15.6537L5.11804 12.9159Z" fill="#FBBC04"/>
<path id="Vector_4" d="M11.0856 4.45664C12.6009 4.43321 14.0655 5.00341 15.1629 6.05008L18.1975 3.01552C16.276 1.21118 13.7257 0.21919 11.0856 0.250434C7.06686 0.250434 3.3918 2.51562 1.58746 6.10866L5.11802 8.84641C5.9577 6.32737 8.31271 4.45664 11.0856 4.45664Z" fill="#EA4335"/>
</g>
<defs>
<clipPath id="clip0_10316_794">
<rect width="21.2576" height="21.2576" fill="white" transform="translate(0.244263 0.24971)"/>
</clipPath>
</defs>
</svg>
