<svg width="137" height="46" viewBox="0 0 137 46" fill="none" xmlns="http://www.w3.org/2000/svg">
<path d="M44.7063 30.0093V29.6097C44.7063 29.5645 44.7039 29.5209 44.7031 29.4765V29.3984H44.7015C44.6109 23.6716 41.1823 21.2519 37.6486 20.2858H44.7055V18.5435C44.7055 18.0674 44.6869 17.5881 44.6505 17.1169C44.6262 16.8045 44.5939 16.4896 44.5542 16.1821C44.4951 15.7241 44.4175 15.2612 44.3228 14.8065C44.199 14.2096 44.0428 13.611 43.8591 13.0289C43.7224 12.5972 43.5678 12.1647 43.3995 11.7437C43.2878 11.4642 43.1673 11.1846 43.0426 10.9117C42.9172 10.6395 42.7845 10.3665 42.6461 10.1009C42.371 9.57144 42.066 9.04851 41.7398 8.5486C41.5772 8.29864 41.4065 8.04951 41.2325 7.8086C40.8845 7.32678 40.5083 6.85565 40.115 6.40837C40.0163 6.29654 39.9167 6.18554 39.8156 6.07537C38.4909 4.63977 36.9551 3.42207 35.2517 2.45679C35.1206 2.38279 34.9879 2.30961 34.8544 2.23808C34.3705 1.97908 33.8696 1.73899 33.3631 1.52192L33.0531 1.39284C32.9633 1.35666 32.8735 1.32048 32.7837 1.28595C32.2124 1.06395 31.6241 0.868262 31.035 0.702996C30.738 0.619952 30.4346 0.542664 30.1328 0.47442C28.7474 0.15951 27.3176 0 25.8821 0H11.5585C10.1926 0 8.85582 0.232688 7.58538 0.690663C7.15408 0.846062 6.73168 1.03106 6.32061 1.23744C6.31252 1.24155 6.30443 1.24566 6.29634 1.24977C6.04873 1.37475 5.80354 1.50548 5.56645 1.64772C5.40703 1.7431 5.25086 1.84177 5.09792 1.94372C4.83817 2.11639 4.59056 2.30221 4.3478 2.49379C1.82473 4.36433 0 6.86305 0.00242758 10.0286L0 15.4544V15.854C0 15.8992 0.00242758 15.9428 0.00323678 15.9872V16.0653H0.00485516C0.0954849 21.7921 3.52404 24.2118 7.05698 25.178H0V26.9202C0 27.3946 0.0186115 27.8748 0.0550252 28.3468C0.079301 28.6568 0.111669 28.9717 0.151319 29.2816C0.21039 29.7413 0.288073 30.2042 0.382749 30.6572C0.507365 31.2558 0.663539 31.8535 0.846417 32.4348C0.983171 32.8682 1.13773 33.3006 1.30604 33.72C1.41771 33.9987 1.53747 34.2783 1.66289 34.5521C1.78832 34.8259 1.92184 35.098 2.0594 35.3628C2.33452 35.8914 2.63959 36.4144 2.9657 36.9159C3.12834 37.1659 3.29908 37.415 3.47306 37.6559C3.82101 38.1377 4.19729 38.6097 4.59056 39.0562C4.68928 39.1688 4.78881 39.2798 4.88996 39.3892C6.21461 40.8248 7.75046 42.0425 9.45381 43.0069C9.58571 43.0817 9.71761 43.1549 9.85113 43.2256C10.3366 43.4855 10.8375 43.7255 11.3425 43.9418L11.6524 44.0709C11.7422 44.107 11.832 44.1432 11.9219 44.1778C12.4923 44.3998 13.0806 44.5954 13.6705 44.7607C13.9667 44.8438 14.2701 44.9202 14.5728 44.9893C15.9589 45.3042 17.3888 45.4637 18.8235 45.4637H33.147C34.5121 45.4637 35.8497 45.231 37.1202 44.773C37.8209 44.5198 38.5006 44.1975 39.1391 43.8152C39.2977 43.7198 39.4539 43.6211 39.6076 43.5192C39.9111 43.3169 40.2056 43.0982 40.4904 42.8671C42.9431 41.0089 44.7031 38.5431 44.7007 35.4343V34.1426C44.7007 34.1212 44.7031 34.0998 44.7031 34.0785V30.0068L44.7063 30.0093ZM14.1666 24.9132L3.81211 17.9992C2.93576 17.4137 3.35654 16.0645 4.41496 16.0645H21.9235C22.2625 16.0645 22.5814 15.9066 22.7845 15.6394L30.1926 5.87228C30.8635 4.98839 32.2876 5.57875 32.1145 6.66901L30.0818 19.5104C30.0179 19.9149 30.1967 20.3195 30.5406 20.5497L40.895 27.4637C41.7714 28.0491 41.3506 29.3984 40.2922 29.3984H22.7837C22.4446 29.3984 22.1258 29.5563 21.9227 29.8235L14.5145 39.5906C13.8437 40.4745 12.4195 39.8841 12.5927 38.7939L14.6262 25.9525C14.6901 25.548 14.5113 25.1434 14.1674 24.9132H14.1666Z" fill="#80A200"/>
<path d="M63.2886 35.7416C60.9182 35.7416 59.0385 35.0749 57.6496 33.7415C56.2606 32.3896 55.5662 30.4451 55.5662 27.908V23.3523C55.5662 20.8151 56.2606 18.8799 57.6496 17.5465C59.0385 16.1946 60.9182 15.5187 63.2886 15.5187C65.622 15.5187 67.4184 16.1668 68.6777 17.4632C69.9555 18.7595 70.5944 20.5281 70.5944 22.7689V22.9356H67.6221V22.6856C67.6221 21.3707 67.261 20.2966 66.5387 19.4632C65.835 18.6299 64.7517 18.2132 63.2886 18.2132C61.8071 18.2132 60.6497 18.6669 59.8163 19.5744C58.9829 20.4633 58.5663 21.7041 58.5663 23.2967V27.9635C58.5663 29.5377 58.9829 30.7784 59.8163 31.6859C60.6497 32.5933 61.8071 33.047 63.2886 33.047C64.7517 33.047 65.835 32.6303 66.5387 31.797C67.261 30.9451 67.6221 29.871 67.6221 28.5747V28.1024H70.5944V28.4913C70.5944 30.7321 69.9555 32.5007 68.6777 33.7971C67.4184 35.0934 65.622 35.7416 63.2886 35.7416ZM78.991 35.3527C78.1576 35.3527 77.4909 35.1027 76.9909 34.6026C76.5094 34.1026 76.2687 33.4359 76.2687 32.6026V24.0745H72.4908V21.6578H76.2687V17.1298H79.1299V21.6578H83.2133V24.0745H79.1299V32.1026C79.1299 32.6581 79.3891 32.9359 79.9077 32.9359H82.7689V35.3527H78.991ZM86.4272 35.3527V21.6578H89.2329V23.2689H89.6773C89.8996 22.6948 90.2514 22.2782 90.7329 22.0189C91.2329 21.7411 91.8441 21.6022 92.5663 21.6022H94.2053V24.1856H92.4552C91.5292 24.1856 90.77 24.4449 90.1773 24.9634C89.5847 25.4634 89.2884 26.2412 89.2884 27.2968V35.3527H86.4272ZM97.0222 35.3527V15.9076H99.8834V35.3527H97.0222ZM109.121 31.4359V26.9357H104.677V24.3245H109.121V19.8244H111.843V24.3245H116.288V26.9357H111.843V31.4359H109.121ZM127.589 35.7416C126.126 35.7416 124.829 35.4823 123.7 34.9638C122.57 34.4452 121.681 33.6859 121.033 32.6859C120.403 31.6674 120.088 30.4358 120.088 28.9913V28.2969H123.061V28.9913C123.061 30.3618 123.468 31.3896 124.283 32.0748C125.116 32.76 126.218 33.1026 127.589 33.1026C128.977 33.1026 130.024 32.8155 130.728 32.2414C131.431 31.6488 131.783 30.8895 131.783 29.9636C131.783 29.3525 131.616 28.8524 131.283 28.4635C130.95 28.0746 130.478 27.7691 129.866 27.5468C129.255 27.3061 128.524 27.0839 127.672 26.8802L126.644 26.6301C125.403 26.3338 124.32 25.9727 123.394 25.5468C122.487 25.1023 121.783 24.519 121.283 23.7967C120.783 23.0745 120.533 22.1485 120.533 21.0188C120.533 19.8707 120.811 18.8891 121.366 18.0743C121.94 17.2595 122.727 16.6298 123.727 16.1854C124.727 15.7409 125.903 15.5187 127.255 15.5187C128.607 15.5187 129.811 15.7502 130.866 16.2131C131.941 16.6761 132.783 17.3613 133.394 18.2688C134.005 19.1762 134.311 20.3151 134.311 21.6855V22.6856H131.339V21.6855C131.339 20.8522 131.163 20.1762 130.811 19.6577C130.478 19.1392 130.005 18.7595 129.394 18.5188C128.783 18.278 128.07 18.1576 127.255 18.1576C126.07 18.1576 125.144 18.4077 124.477 18.9077C123.829 19.3892 123.505 20.0651 123.505 20.9355C123.505 21.5281 123.644 22.0189 123.922 22.4078C124.218 22.7782 124.644 23.0837 125.2 23.3245C125.755 23.5652 126.45 23.7782 127.283 23.9634L128.311 24.2134C129.57 24.4912 130.681 24.8523 131.644 25.2968C132.607 25.7227 133.366 26.3061 133.922 27.0468C134.478 27.7876 134.755 28.7413 134.755 29.908C134.755 31.0747 134.459 32.0933 133.867 32.9637C133.292 33.8341 132.468 34.5193 131.394 35.0193C130.32 35.5008 129.052 35.7416 127.589 35.7416Z" fill="black"/>
</svg>
