<?xml version="1.0" encoding="UTF-8"?>
<svg xmlns="http://www.w3.org/2000/svg" width="20" height="21" viewBox="0 0 20 21" fill="none">
  <g clip-path="url(#clip0_242_1319)">
    <path fill-rule="evenodd" clip-rule="evenodd" d="M10 0.5C15.5229 0.5 20 4.97715 20 10.5C20 16.0229 15.5229 20.5 10 20.5C4.47715 20.5 0 16.0229 0 10.5C0 4.97715 4.47715 0.5 10 0.5ZM16.3477 14.3766V6.94445L12.6314 10.6605L16.3477 14.3766ZM4.44625 14.528H15.554L12.1591 11.1332L10.8653 12.4268C10.8025 12.4894 10.7175 12.5245 10.6289 12.5245H9.37113C9.32725 12.5245 9.28379 12.5159 9.24323 12.4992C9.20268 12.4824 9.16582 12.4578 9.13477 12.4268L7.84094 11.1332L4.44609 14.528H4.44625ZM3.65234 6.94422V14.3768L7.36863 10.6605L3.65234 6.94422ZM15.8752 6.47199H4.125L9.50953 11.8565H10.4907L15.8752 6.47199Z" fill="white"></path>
  </g>
  <defs>
    <clipPath id="clip0_242_1319">
      <rect width="20" height="20" fill="white" transform="translate(0 0.5)"></rect>
    </clipPath>
  </defs>
</svg>
