<?xml version="1.0" encoding="UTF-8"?>
<svg xmlns="http://www.w3.org/2000/svg" width="20" height="21" viewBox="0 0 20 21" fill="none">
  <g clip-path="url(#clip0_273_81822)">
    <path d="M17.07 3.42787C13.1642 -0.476782 6.83251 -0.475845 2.92787 3.43001C-0.976782 7.33587 -0.975845 13.6675 2.93001 17.5722C6.83587 21.4768 13.1675 21.4759 17.0722 17.57C18.9474 15.6942 20.0006 13.1502 20 10.4979C19.9995 7.84591 18.9455 5.30279 17.07 3.42787ZM15.1447 14.4299C15.1442 14.4303 15.1438 14.4308 15.1433 14.4312V14.4279L14.6367 14.9312C13.9814 15.5948 13.027 15.8678 12.12 15.6512C11.2061 15.4066 10.3374 15.0172 9.54666 14.4979C8.81205 14.0284 8.13126 13.4796 7.51666 12.8612C6.95115 12.2999 6.4431 11.6835 5.99998 11.0212C5.51529 10.3086 5.13166 9.5324 4.85998 8.71455C4.54853 7.75377 4.80662 6.69951 5.52666 5.99123L6.11998 5.39791C6.28494 5.2322 6.55298 5.23162 6.71865 5.39658C6.71908 5.39701 6.71955 5.39744 6.71998 5.39791L8.5933 7.27123C8.759 7.43619 8.75959 7.70423 8.59462 7.8699C8.59419 7.87033 8.59377 7.87076 8.5933 7.87123L7.4933 8.97123C7.17767 9.28341 7.13798 9.77951 7.39998 10.1379C7.79783 10.6839 8.2381 11.1977 8.71666 11.6746C9.25021 12.2104 9.83025 12.6979 10.45 13.1313C10.8081 13.381 11.2935 13.3389 11.6033 13.0313L12.6666 11.9513C12.8316 11.7856 13.0996 11.785 13.2653 11.9499C13.2657 11.9504 13.2661 11.9508 13.2666 11.9513L15.1433 13.8313C15.309 13.9962 15.3096 14.2642 15.1447 14.4299Z" fill="white"></path>
  </g>
  <defs>
    <clipPath id="clip0_273_81822">
      <rect width="20" height="20" fill="white" transform="translate(0 0.5)"></rect>
    </clipPath>
  </defs>
</svg>
