<?xml version="1.0" encoding="UTF-8"?>
<svg xmlns="http://www.w3.org/2000/svg" width="20" height="21" viewBox="0 0 20 21" fill="none">
  <g clip-path="url(#clip0_273_81817)">
    <path fill-rule="evenodd" clip-rule="evenodd" d="M10 20.5C4.47803 20.5 0 16.022 0 10.5C0 4.97803 4.47803 0.5 10 0.5C15.522 0.5 20 4.97803 20 10.5C20 16.022 15.522 20.5 10 20.5ZM10 3.99559C12.7356 3.99559 14.9531 6.21315 14.9531 8.94874C14.9531 11.6843 10 17.0043 10 17.0043C10 17.0043 5.04685 11.6843 5.04685 8.94874C5.04685 6.21315 7.26441 3.99559 10 3.99559ZM10 6.98079C11.0372 6.98079 11.8783 7.82189 11.8783 8.85913C11.8783 9.8963 11.0372 10.7374 10 10.7374C8.96283 10.7374 8.12173 9.8963 8.12173 8.85913C8.12173 7.82189 8.96283 6.98079 10 6.98079Z" fill="white"></path>
  </g>
  <defs>
    <clipPath id="clip0_273_81817">
      <rect width="20" height="20" fill="white" transform="translate(0 0.5)"></rect>
    </clipPath>
  </defs>
</svg>
