<svg width="133" height="43" viewBox="0 0 133 43" fill="none" xmlns="http://www.w3.org/2000/svg">
<g clip-path="url(#clip0_13_305)">
<path d="M43 28.3831V28.0051C43 27.9624 42.9977 27.9211 42.9969 27.8792V27.8053H42.9953C42.9082 22.3889 39.6105 20.1002 36.2116 19.1865H42.9992V17.5386C42.9992 17.0883 42.9813 16.635 42.9463 16.1894C42.9229 15.8938 42.8918 15.596 42.8537 15.3052C42.7969 14.872 42.7221 14.4342 42.6311 14.0041C42.512 13.4395 42.3618 12.8734 42.1851 12.3228C42.0536 11.9145 41.9049 11.5055 41.743 11.1073C41.6356 10.8429 41.5197 10.5785 41.3998 10.3203C41.2792 10.0629 41.1515 9.80475 41.0184 9.55357C40.7538 9.05275 40.4604 8.55816 40.1467 8.08534C39.9903 7.84893 39.8261 7.6133 39.6587 7.38545C39.324 6.92974 38.9621 6.48414 38.5839 6.06109C38.4889 5.95533 38.3932 5.85035 38.2959 5.74614C37.0218 4.38834 35.5446 3.23663 33.9062 2.32365C33.7802 2.25366 33.6525 2.18445 33.5241 2.11679C33.0587 1.87183 32.5769 1.64475 32.0897 1.43945L31.7916 1.31736C31.7052 1.28314 31.6188 1.24892 31.5324 1.21626C30.9829 1.00629 30.4171 0.82121 29.8505 0.6649C29.5648 0.586357 29.273 0.513256 28.9827 0.448711C27.6502 0.150866 26.2749 0 24.8942 0H11.1174C9.80358 0 8.51781 0.220078 7.29587 0.653235C6.88103 0.800213 6.47475 0.975187 6.07937 1.17038C6.07159 1.17427 6.0638 1.17816 6.05602 1.18204C5.81786 1.30025 5.58203 1.4239 5.35399 1.55843C5.20066 1.64864 5.05045 1.74196 4.90335 1.83839C4.65351 2.0017 4.41535 2.17745 4.18185 2.35865C1.75509 4.12783 0 6.49114 0.00233493 9.48513L0 14.6169V14.9949C0 15.0376 0.00233493 15.0789 0.00311323 15.1208V15.1947H0.00466985C0.0918404 20.6111 3.38953 22.8998 6.78763 23.8135H0V25.4614C0 25.9101 0.0179011 26.3643 0.052925 26.8106C0.0762743 27.1038 0.107407 27.4017 0.145544 27.6948C0.20236 28.1296 0.277078 28.5674 0.36814 28.9959C0.488 29.562 0.638213 30.1274 0.814111 30.6772C0.945645 31.087 1.0943 31.4961 1.25619 31.8927C1.3636 32.1563 1.47879 32.4207 1.59942 32.6797C1.72006 32.9386 1.84848 33.196 1.9808 33.4464C2.24542 33.9465 2.53884 34.4411 2.8525 34.9154C3.00894 35.1518 3.17316 35.3875 3.3405 35.6153C3.67517 36.071 4.03709 36.5174 4.41535 36.9397C4.5103 37.0462 4.60603 37.1512 4.70332 37.2546C5.97741 38.6124 7.45464 39.7641 9.09298 40.6763C9.21985 40.7471 9.34671 40.8163 9.47513 40.8832C9.94212 41.1289 10.4239 41.356 10.9096 41.5605L11.2076 41.6826C11.294 41.7169 11.3804 41.7511 11.4668 41.7837C12.0155 41.9937 12.5814 42.1788 13.1487 42.3351C13.4336 42.4136 13.7255 42.486 14.0166 42.5513C15.3498 42.8491 16.7251 43 18.105 43H31.8819C33.1949 43 34.4814 42.7799 35.7034 42.3468C36.3774 42.1072 37.0312 41.8024 37.6452 41.4408C37.7978 41.3506 37.948 41.2573 38.0959 41.1608C38.3877 40.9695 38.671 40.7627 38.945 40.5441C41.3041 38.7866 42.9969 36.4544 42.9945 33.5141V32.2924C42.9945 32.2722 42.9969 32.2519 42.9969 32.2317V28.3807L43 28.3831ZM13.6259 23.5631L3.66661 17.0238C2.8237 16.4701 3.22842 15.1939 4.24645 15.1939H21.0867C21.4128 15.1939 21.7195 15.0446 21.9148 14.7919L29.0403 5.55406C29.6855 4.71807 31.0553 5.27643 30.8887 6.30761L28.9336 18.4531C28.8721 18.8357 29.0441 19.2183 29.3749 19.4361L39.3342 25.9754C40.1771 26.5291 39.7724 27.8053 38.7543 27.8053H21.9141C21.5879 27.8053 21.2813 27.9546 21.0859 28.2073L13.9605 37.4452C13.3153 38.2812 11.9455 37.7228 12.112 36.6916L14.0679 24.5461C14.1294 24.1635 13.9574 23.7809 13.6266 23.5631H13.6259Z" fill="white"/>
</g>
<path d="M61.9168 34.3067C59.6368 34.3067 57.8289 33.6654 56.4929 32.3829C55.157 31.0826 54.489 29.2124 54.489 26.7721V22.3902C54.489 19.95 55.157 18.0886 56.4929 16.8061C57.8289 15.5058 59.6368 14.8556 61.9168 14.8556C64.1611 14.8556 65.8889 15.4791 67.1002 16.7259C68.3292 17.9728 68.9437 19.6739 68.9437 21.8292V21.9895H66.0849V21.749C66.0849 20.4843 65.7375 19.4512 65.0428 18.6497C64.366 17.8481 63.3239 17.4473 61.9168 17.4473C60.4918 17.4473 59.3785 17.8837 58.577 18.7565C57.7754 19.6115 57.3746 20.805 57.3746 22.3368V26.8255C57.3746 28.3396 57.7754 29.533 58.577 30.4058C59.3785 31.2786 60.4918 31.715 61.9168 31.715C63.3239 31.715 64.366 31.3142 65.0428 30.5127C65.7375 29.6933 66.0849 28.6602 66.0849 27.4133V26.9591H68.9437V27.3332C68.9437 29.4884 68.3292 31.1895 67.1002 32.4364C65.8889 33.6832 64.1611 34.3067 61.9168 34.3067ZM77.0198 33.9326C76.2182 33.9326 75.577 33.6922 75.0961 33.2112C74.6329 32.7303 74.4014 32.089 74.4014 31.2875V23.0849H70.7677V20.7604H74.4014V16.4053H77.1534V20.7604H81.081V23.0849H77.1534V30.8066C77.1534 31.3409 77.4028 31.6081 77.9015 31.6081H80.6535V33.9326H77.0198ZM84.1722 33.9326V20.7604H86.8708V22.3101H87.2983C87.512 21.7579 87.8504 21.3571 88.3136 21.1078C88.7945 20.8406 89.3823 20.707 90.077 20.707H91.6534V23.1918H89.9701C89.0795 23.1918 88.3492 23.4412 87.7792 23.9399C87.2092 24.4208 86.9242 25.169 86.9242 26.1843V33.9326H84.1722ZM94.3628 33.9326V15.2297H97.1148V33.9326H94.3628ZM106 30.1653V25.8369H101.725V23.3254H106V18.997H108.618V23.3254H112.893V25.8369H108.618V30.1653H106ZM123.762 34.3067C122.355 34.3067 121.108 34.0573 120.022 33.5586C118.935 33.0598 118.08 32.3295 117.457 31.3676C116.851 30.388 116.548 29.2035 116.548 27.8141V27.1461H119.407V27.8141C119.407 29.1322 119.799 30.1208 120.583 30.7798C121.385 31.4389 122.444 31.7684 123.762 31.7684C125.098 31.7684 126.105 31.4923 126.782 30.9402C127.459 30.3702 127.797 29.6399 127.797 28.7492C127.797 28.1614 127.637 27.6805 127.316 27.3064C126.995 26.9324 126.541 26.6385 125.953 26.4247C125.366 26.1932 124.662 25.9794 123.843 25.7835L122.854 25.543C121.661 25.258 120.619 24.9107 119.728 24.501C118.855 24.0735 118.178 23.5124 117.697 22.8177C117.216 22.1231 116.976 21.2324 116.976 20.1459C116.976 19.0415 117.243 18.0975 117.778 17.3137C118.33 16.53 119.087 15.9244 120.049 15.4969C121.01 15.0694 122.142 14.8556 123.442 14.8556C124.742 14.8556 125.9 15.0783 126.915 15.5236C127.948 15.9689 128.759 16.628 129.347 17.5008C129.934 18.3736 130.228 19.469 130.228 20.7871V21.749H127.369V20.7871C127.369 19.9856 127.2 19.3354 126.862 18.8367C126.541 18.3379 126.087 17.9728 125.499 17.7412C124.911 17.5097 124.226 17.3939 123.442 17.3939C122.302 17.3939 121.411 17.6344 120.77 18.1153C120.147 18.5784 119.835 19.2286 119.835 20.0657C119.835 20.6357 119.968 21.1078 120.236 21.4818C120.521 21.8381 120.93 22.132 121.465 22.3635C121.999 22.5951 122.667 22.7999 123.469 22.9781L124.457 23.2185C125.668 23.4857 126.737 23.833 127.663 24.2605C128.59 24.6702 129.32 25.2313 129.854 25.9438C130.389 26.6563 130.656 27.5736 130.656 28.6958C130.656 29.818 130.371 30.7977 129.801 31.6348C129.249 32.472 128.456 33.1311 127.423 33.612C126.39 34.0751 125.17 34.3067 123.762 34.3067Z" fill="white"/>
<defs>
<clipPath id="clip0_13_305">
<rect width="43" height="43" fill="white"/>
</clipPath>
</defs>
</svg>
